<?xml version="1.0" standalone="no"?>
<!DOCTYPE svg PUBLIC "-//W3C//DTD SVG 20010904//EN"
 "http://www.w3.org/TR/2001/REC-SVG-20010904/DTD/svg10.dtd">
<svg version="1.0" xmlns="http://www.w3.org/2000/svg"
 width="500.000000pt" height="500.000000pt" viewBox="0 0 500.000000 500.000000"
 preserveAspectRatio="xMidYMid meet">

<g transform="translate(0.000000,500.000000) scale(0.100000,-0.100000)"
fill="#000000" stroke="none">
<path d="M0 2500 l0 -2500 2500 0 2500 0 0 2500 0 2500 -2500 0 -2500 0 0
-2500z m2488 2013 l-3 -48 -55 -2 c-171 -8 -409 -51 -569 -102 -35 -12 -67
-18 -72 -16 -10 7 -34 83 -28 88 6 5 144 46 229 67 41 11 122 26 180 35 58 8
116 16 130 18 14 3 62 5 108 6 l83 1 -3 -47z m462 -4 c863 -196 1515 -905
1635 -1777 28 -206 16 -528 -26 -717 -13 -57 -69 -257 -75 -267 -2 -4 -25 0
-50 9 -35 12 -44 19 -39 32 20 51 59 200 78 301 19 100 22 147 22 365 -1 231
-3 260 -27 378 -39 184 -92 342 -169 497 -109 219 -215 368 -382 538 -274 279
-637 474 -1026 551 -57 12 -105 21 -106 21 -4 0 4 67 10 87 5 14 22 12 155
-18z m-350 -174 c0 -12 -17 -15 -94 -15 -416 0 -816 -131 -1141 -376 -83 -62
-96 -74 -197 -173 -55 -53 -81 -72 -88 -65 -31 31 257 277 460 394 188 108
435 195 650 229 104 17 118 18 268 20 120 1 142 -1 142 -14z m395 -50 c87 -22
247 -84 340 -131 142 -73 175 -94 168 -110 -7 -20 -9 -19 -91 30 -41 25 -117
64 -170 87 -96 42 -300 109 -332 109 -22 0 -30 9 -23 26 5 14 9 14 108 -11z
m-1508 -38 l21 -43 -46 -25 c-178 -94 -472 -362 -608 -554 -173 -246 -281
-493 -338 -774 -9 -41 -17 -75 -19 -77 -7 -7 -97 9 -97 17 0 29 84 331 114
408 165 427 458 784 851 1038 44 28 85 52 90 52 6 0 20 -19 32 -42z m377 -217
c26 -67 27 -90 5 -90 -38 0 -316 -163 -398 -233 -81 -69 -230 -227 -282 -297
-95 -129 -170 -267 -214 -395 -16 -44 -31 -84 -36 -88 -10 -12 -149 34 -149
49 0 20 69 193 107 268 171 340 437 607 785 789 76 39 130 64 149 66 3 1 18
-31 33 -69z m1970 -232 c268 -270 447 -601 520 -960 50 -247 55 -432 20 -678
-63 -432 -284 -836 -622 -1141 -42 -38 -83 -69 -89 -69 -27 0 -11 29 35 66
120 97 255 249 355 401 411 625 410 1433 -5 2064 -73 111 -130 180 -245 298
-75 77 -90 101 -61 101 6 0 47 -37 92 -82z m-314 -358 c0 -40 0 -40 40 -40 36
0 42 4 65 40 16 25 33 40 45 40 26 0 25 -3 -7 -59 l-26 -48 32 -56 32 -57 -25
0 c-19 0 -31 10 -52 45 -24 41 -29 45 -65 45 l-39 0 0 -45 c0 -37 -3 -45 -19
-45 -21 0 -31 49 -31 150 0 61 4 70 32 70 14 0 18 -8 18 -40z m-1137 -108 l97
-97 -395 -395 c-217 -217 -394 -398 -393 -402 2 -4 161 -166 354 -360 192
-194 367 -372 387 -394 l37 -42 -78 -78 c-44 -44 -89 -88 -101 -98 l-22 -20
-494 494 -495 495 497 497 c274 274 500 498 503 498 3 0 49 -44 103 -98z
m-1578 -52 c3 -5 -6 -33 -21 -62 -35 -69 -101 -264 -120 -353 -57 -271 -59
-540 -5 -820 39 -199 170 -499 294 -673 25 -35 28 -45 17 -52 -15 -9 -42 24
-110 135 -126 205 -211 439 -257 700 -26 154 -24 452 6 615 23 129 86 335 140
453 29 64 43 78 56 57z m397 -292 c-2 -7 -17 -52 -33 -100 -54 -165 -64 -236
-64 -443 0 -248 28 -383 120 -582 l34 -73 -39 -20 c-22 -11 -42 -20 -44 -20
-11 0 -65 119 -99 220 -53 157 -77 305 -77 483 0 201 28 344 111 564 l8 22 43
-19 c24 -11 41 -25 40 -32z m2498 -62 c0 -83 -6 -106 -26 -106 -19 0 -18 -10
4 -26 15 -12 15 -13 -9 -14 -14 0 -36 9 -49 20 -30 26 -98 28 -96 3 0 -12 -7
-19 -21 -21 -23 -3 -23 -2 -23 107 l0 111 110 0 110 0 0 -74z m-1232 -514 l2
-172 -172 2 -173 3 -2 165 c-1 90 1 168 3 172 3 5 81 7 172 6 l167 -3 3 -173z
m402 3 l0 -175 -170 0 -170 0 0 105 0 105 35 0 35 0 0 -65 0 -65 95 0 95 0 0
95 0 95 -130 0 -130 0 0 40 0 40 170 0 170 0 0 -175z m400 135 l0 -40 -135 0
-135 0 0 -25 0 -25 135 0 135 0 0 -40 0 -40 -135 0 -135 0 0 -30 0 -30 135 0
135 0 0 -40 0 -40 -170 0 -170 0 0 175 0 175 170 0 170 0 0 -40z m398 -42 c-9
-13 -39 -62 -68 -110 -42 -72 -57 -88 -76 -88 -13 0 -24 2 -24 4 0 6 109 186
123 204 5 6 21 12 34 12 24 0 24 -1 11 -22z m-2798 -66 c0 -84 21 -264 41
-352 73 -319 215 -571 456 -807 63 -62 118 -113 122 -113 4 0 21 -11 37 -25
16 -14 58 -43 94 -65 36 -22 71 -44 79 -49 11 -7 7 -21 -23 -75 -20 -36 -40
-66 -45 -66 -11 0 -116 64 -190 117 -203 145 -359 322 -519 590 -116 193 -211
551 -212 791 l0 102 80 0 80 0 0 -48z m-373 -297 c39 -269 148 -563 291 -785
217 -337 582 -641 940 -783 l42 -17 -15 -36 c-8 -20 -15 -39 -15 -41 0 -14
-71 12 -182 67 -197 98 -269 146 -455 302 -90 77 -207 199 -284 298 -124 158
-219 326 -297 525 -77 195 -150 508 -127 545 4 6 25 10 48 8 l42 -3 12 -80z
m3197 -101 c10 -25 -2 -34 -44 -34 l-39 0 -3 -82 c-3 -75 -5 -83 -23 -83 -18
0 -20 7 -20 80 l0 80 -40 5 c-32 4 -41 9 -43 28 -3 22 -2 22 101 22 87 0 106
-3 111 -16z m-20 -466 c-4 -7 -15 -24 -24 -38 -10 -14 -26 -41 -37 -60 -51
-93 -65 -110 -89 -110 -13 0 -24 2 -24 5 0 7 106 183 121 201 15 18 63 19 53
2z m423 -437 l33 -28 -51 -59 c-70 -80 -178 -183 -274 -260 -232 -188 -487
-313 -810 -400 -212 -56 -517 -77 -739 -51 -70 9 -130 18 -133 21 -3 3 -2 26
2 52 l7 46 36 -6 c20 -3 104 -11 186 -18 238 -18 523 15 751 88 76 24 297 118
321 136 6 4 31 19 56 32 158 84 362 246 497 395 40 44 76 81 80 81 3 0 21 -13
38 -29z m-2730 -194 c201 -154 496 -285 763 -337 281 -56 592 -43 866 34 66
19 84 21 88 10 6 -16 5 -17 -59 -37 -70 -23 -230 -54 -348 -68 -193 -22 -474
1 -687 56 -248 64 -529 213 -733 388 -46 40 -55 52 -46 63 10 12 19 8 53 -24
22 -20 69 -59 103 -85z m596 -32 c183 -63 383 -91 587 -82 169 7 293 29 438
76 75 25 116 33 121 26 11 -15 54 -135 50 -139 -2 -2 -37 -15 -77 -30 -100
-36 -250 -73 -352 -87 -109 -15 -372 -15 -474 0 -137 20 -393 89 -430 116 -18
14 -18 16 10 85 20 47 33 68 42 65 8 -3 46 -16 85 -30z"/>
<path d="M3526 2913 l1 -38 62 -3 61 -3 0 41 0 40 -62 0 -63 0 1 -37z"/>
<path d="M2200 2415 l0 -95 95 0 95 0 0 95 0 95 -95 0 -95 0 0 -95z"/>
</g>
</svg>
